# xmcd
#
# Track frame offsets:
# 150
# 19520
# 43906
# 63958
# 80839
# 95409
#
# Disc length: 2010 seconds
#
#
# Revision: 0
# Processed by: cddbd v1.5.1PL2 Copyright (c) Steve Scherf et al.
# Submitted via: FreeRIP 2.944 
#
DISCID=4607d806
DTITLE=Maxx Cabello Jr. - Heart Breaker
DYEAR=2006
DGENRE=Blues
TTITLE0=Bad Lil Moma
TTITLE1=Let's Get Funky
TTITLE2=Heart Breaker
TTITLE3=Fool 2 Blame
TTITLE4=Life 2 Gamble
TTITLE5=Ain't No Sunshine
EXTD=
EXTT0=
EXTT1=
EXTT2=
EXTT3=
EXTT4=
EXTT5=
PLAYORDER=
